<?xml version="1.0" encoding="UTF-8"?>
<svg id="Layer_2" xmlns="http://www.w3.org/2000/svg" viewBox="0 0 1046.88 1804.74">
  <defs>
    <style>
      .cls-1 {
        fill: #fff;
      }
    </style>
  </defs>
  <g id="Layer_1-2" data-name="Layer_1">
    <path class="cls-1" d="M0,464.37s308.83,216.56,369.29,118.76-30.63-290.77,144.06-257.26c38.27,7.34,233.88,182.75,78.38,513.41C510.67,1011.66-51.83,580.81,51.83,1610.06c19.36,192.2,254.84,186.29,425.45,183.96,170.61-2.33,499.37,60.31,535.59-93.14,183.57-777.76-434.86-484.54-449.06-480.49-439.49,125.23,444.04-418.82,457.7-653.55,25.38-436.3-2.35-468.92-53.99-512.3C877.25-21.28,479.44,3.31,321.78,5.64,164.13,7.96,4.32-15.32,0,464.37Z"/>
  </g>
</svg>