# This file uses centimeters as units for non-parametric coordinates.

mtllib 8Top.mtl
g default
v 1.538310 3.556195 0.570566
v -2.691882 3.556195 0.570566
v 1.532253 2.415063 0.570566
v -2.691882 2.415063 0.570566
v 1.532253 2.415063 -0.570566
v -2.691882 2.415063 -0.570566
v 1.538310 3.556195 -0.570566
v -2.691882 3.556195 -0.570566
v -1.591373 3.556195 0.570566
v -1.578816 2.415063 0.570566
v -1.578816 2.415063 -0.570566
v -1.591373 3.556195 -0.570566
v -1.588120 1.376845 0.570566
v -1.588120 1.376845 -0.570566
v 2.589883 2.631109 -0.570566
v 2.589883 2.631109 0.570566
v 2.583507 1.429946 0.570566
v 2.583507 1.429946 -0.570566
vt 0.375000 0.000000
vt 0.625000 0.000000
vt 0.375000 0.250000
vt 0.625000 0.250000
vt 0.375000 0.500000
vt 0.625000 0.500000
vt 0.375000 0.750000
vt 0.625000 0.750000
vt 0.375000 1.000000
vt 0.625000 1.000000
vt 0.875000 0.000000
vt 0.875000 0.250000
vt 0.125000 0.000000
vt 0.125000 0.250000
vt 0.550000 0.000000
vt 0.550000 1.000000
vt 0.550000 0.250000
vt 0.550000 0.500000
vt 0.550000 0.750000
vt 0.587500 0.500000
vt 0.587500 0.250000
vt 0.125000 0.000000
vt 0.375000 0.000000
vt 0.375000 0.250000
vt 0.125000 0.250000
vn 0.000000 0.000000 1.000000
vn 0.000000 0.000000 1.000000
vn 0.000000 0.000000 1.000000
vn 0.000000 0.000000 1.000000
vn 0.000000 -1.000000 0.000000
vn 0.000000 -1.000000 0.000000
vn 0.000000 -1.000000 0.000000
vn 0.000000 -1.000000 0.000000
vn 0.000000 0.000000 -1.000000
vn 0.000000 0.000000 -1.000000
vn 0.000000 0.000000 -1.000000
vn 0.000000 0.000000 -1.000000
vn 0.000000 1.000000 0.000000
vn 0.000000 1.000000 0.000000
vn 0.000000 1.000000 0.000000
vn 0.000000 1.000000 0.000000
vn -1.000000 0.000000 0.000000
vn -1.000000 0.000000 0.000000
vn -1.000000 0.000000 0.000000
vn -1.000000 0.000000 0.000000
vn 0.999986 -0.005308 0.000000
vn 0.999986 -0.005308 0.000000
vn 0.999986 -0.005308 0.000000
vn 0.999986 -0.005308 0.000000
vn 0.000000 0.000000 1.000000
vn 0.000000 0.000000 1.000000
vn 0.000000 0.000000 -1.000000
vn 0.000000 0.000000 -1.000000
vn 0.000000 1.000000 0.000000
vn 0.000000 1.000000 0.000000
vn 0.999960 -0.008960 0.000000
vn 0.999960 -0.008960 0.000000
vn 0.999960 -0.008960 0.000000
vn 0.999960 -0.008960 0.000000
vn 0.000000 0.000000 1.000000
vn -0.685149 -0.728403 0.000000
vn -0.685149 -0.728403 0.000000
vn -0.685149 -0.728403 0.000000
vn -0.685149 -0.728403 0.000000
vn 0.000000 0.000000 -1.000000
vn 0.660508 0.750819 0.000000
vn 0.660508 0.750819 0.000000
vn 0.660508 0.750819 0.000000
vn 0.660508 0.750819 0.000000
vn 0.000000 0.000000 1.000000
vn 0.000000 0.000000 1.000000
vn -0.683781 -0.729687 0.000000
vn -0.683781 -0.729687 0.000000
vn -0.683781 -0.729687 0.000000
vn -0.683781 -0.729687 0.000000
vn 0.000000 0.000000 -1.000000
vn 0.000000 0.000000 -1.000000
s 1
g pCube28
usemtl initialShadingGroup
f 1/1/1 9/15/2 10/17/3 3/3/4
s off
f 3/3/5 10/17/6 11/18/7 5/5/8
s 2
f 5/5/9 11/18/10 12/19/11 7/7/12
s 3
f 7/7/13 12/19/14 9/16/15 1/9/16
s off
f 2/2/17 8/11/18 6/12/19 4/4/20
f 15/22/21 16/23/22 17/24/23 18/25/24
s 1
f 10/17/3 9/15/2 2/2/25 4/4/26
s 2
f 12/19/11 11/18/10 6/6/27 8/8/28
s 3
f 9/16/15 12/19/14 8/8/29 2/10/30
s off
f 11/18/31 10/17/32 13/21/33 14/20/34
s 1
f 10/17/3 4/4/26 13/21/35
s off
f 4/4/36 6/6/37 14/20/38 13/21/39
s 2
f 6/6/27 11/18/10 14/20/40
s off
f 7/13/41 1/1/42 16/23/43 15/22/44
s 1
f 1/1/1 3/3/4 17/24/45 16/23/46
s off
f 3/3/47 5/14/48 18/25/49 17/24/50
s 2
f 5/14/9 7/13/12 15/22/51 18/25/52
